<svg id="Layer_1" data-name="Layer 1" xmlns="http://www.w3.org/2000/svg" viewBox="0 0 278.15 278.15"><title>Text_Analytics_278x278</title><rect y="0.07" width="278.15" height="278" style="fill:#009480"/><path d="M208.28,120.77c0-29.66-28.25-53.7-63.09-53.7s-63.09,24-63.09,53.7c0,22,15.49,40.82,37.67,49.15-2.06,2.92-7.16,7-12.14,9.71-9.71,5.27-21.16,8-31.77,12-1.77.66-4.5,1.67-4.67,2.78-0.79,5.06-.82,10.22-1.11,15.25,1.32,0.37,1.93.61,2.56,0.71,30,4.74,57.19-1.28,81.76-14.63C179.9,181.85,208.28,159.3,208.28,120.77Z" transform="translate(0.13)" style="fill:#fff"/><path d="M145.75,84.5C123,84.5,104.25,99.89,104,119.1s18.05,35.67,40.89,35.81,41.73-15.61,41.79-35.17S168.36,84.65,145.75,84.5Z" transform="translate(0.13)" style="fill:#414142"/><path d="M153.47,108.56V100.9h2.44v-5H134.66v5h2.44v7.66l-12.57,25.1,3.8,6.38h34l3.77-6.3Zm-9.93,6.18-10.07,20.08H131l-1.34-1.28,12.57-23.86V101h6.15v8.71l2.44,5h-7.31v0Z" transform="translate(0.13)" style="fill:#fff"/></svg>